<svg width="18" height="18" viewBox="0 0 18 18" fill="none" xmlns="http://www.w3.org/2000/svg">
<path d="M6.33333 16.3333C7.06971 16.3333 7.66667 15.7363 7.66667 15C7.66667 14.2636 7.06971 13.6666 6.33333 13.6666C5.59695 13.6666 5 14.2636 5 15C5 15.7363 5.59695 16.3333 6.33333 16.3333Z" stroke="white" stroke-width="1.8" stroke-linecap="round" stroke-linejoin="round"/>
<path d="M14.3333 16.3333C15.0697 16.3333 15.6667 15.7363 15.6667 15C15.6667 14.2636 15.0697 13.6666 14.3333 13.6666C13.597 13.6666 13 14.2636 13 15C13 15.7363 13.597 16.3333 14.3333 16.3333Z" stroke="white" stroke-width="1.8" stroke-linecap="round" stroke-linejoin="round"/>
<path d="M4.78008 4.99996H16.3334L15.2134 10.5933C15.1525 10.9002 14.9855 11.1759 14.7417 11.3722C14.498 11.5684 14.1929 11.6726 13.8801 11.6666H6.83341C6.50787 11.6694 6.19257 11.5529 5.94695 11.3393C5.70134 11.1256 5.54239 10.8294 5.50008 10.5066L4.48675 2.82663C4.44473 2.50612 4.2877 2.21179 4.04488 1.9984C3.80207 1.78502 3.49 1.66712 3.16675 1.66663H1.66675" stroke="white" stroke-width="1.8" stroke-linecap="round" stroke-linejoin="round"/>
</svg>
